<svg id="Layer_1" enable-background="new 0 0 510.048 510.048" height="512" viewBox="0 0 510.048 510.048" width="512" xmlns="http://www.w3.org/2000/svg"><g><path d="m270 60.104 29.968.111.111-30-29.984-.111.096-30.008-30-.096-.095 29.993-30.016-.111-.111 30 30.031.111-.12 37.831-134.856 104.887v307.336h75v-99.646c0-42.32 34.43-76.75 76.75-76.75s76.75 34.43 76.75 76.75v99.646h71.5v-307.336l-135.143-105.111zm30.024 164.944c0 24.813-20.187 45-45 45-24.814 0-45-20.187-45-45s20.186-45 45-45c24.813 0 45 20.187 45 45z"/><path d="m256.774 363.651c-25.778 0-46.75 20.972-46.75 46.75v99.646h93.5v-99.646c0-25.778-20.972-46.75-46.75-46.75z"/><path d="m.024 510.048h75v-219.08l-75 62.019z"/><path d="m435.024 290.969v219.079h75v-157.061z"/><circle cx="255.024" cy="225.048" r="15"/></g></svg>